<svg width="33" height="32" viewBox="0 0 33 32" fill="none" xmlns="http://www.w3.org/2000/svg">
<rect x="0.5" width="32" height="32" rx="16" fill="#FF8100"/>
<path d="M24.2776 16.6562C24.2776 20.8136 20.9074 24.1838 16.75 24.1838C12.5926 24.1838 9.22243 20.8136 9.22243 16.6562C9.22243 12.4989 12.5926 9.12868 16.75 9.12868C20.9074 9.12868 24.2776 12.4989 24.2776 16.6562Z" fill="white" fill-opacity="0.22" stroke="white" stroke-width="1.19485"/>
<path d="M16.5 15.6C17.5294 15.6 18.364 14.7655 18.364 13.736C18.364 12.7066 17.5294 11.8721 16.5 11.8721C15.4705 11.8721 14.636 12.7066 14.636 13.736C14.636 14.7655 15.4705 15.6 16.5 15.6Z" stroke="white" stroke-width="1.19485" stroke-linecap="round" stroke-linejoin="round"/>
<path d="M19.7 20.1285C19.7 18.6885 18.268 17.5205 16.5 17.5205C14.732 17.5205 13.3 18.6885 13.3 20.1285" stroke="white" stroke-width="1.19485" stroke-linecap="round" stroke-linejoin="round"/>
</svg>
