<svg width="36" height="38" viewBox="0 0 36 38" fill="none" xmlns="http://www.w3.org/2000/svg">
<path d="M36 19.4407C36 18.2007 35.88 16.9207 35.68 15.7207H18.36V22.8007H28.28C27.88 25.0807 26.56 27.0807 24.6 28.3607L30.52 32.9607C34 29.7207 36 25.0007 36 19.4407Z" fill="#4280EF"/>
<path d="M18.36 37.3605C23.32 37.3605 27.48 35.7205 30.52 32.9205L24.6 28.3605C22.96 29.4805 20.84 30.1205 18.36 30.1205C13.56 30.1205 9.51996 26.8805 8.03996 22.5605L1.95996 27.2405C5.07996 33.4405 11.4 37.3605 18.36 37.3605Z" fill="#34A353"/>
<path d="M8.04001 22.5207C7.28001 20.2407 7.28001 17.7607 8.04001 15.4807L1.96001 10.7607C-0.63999 15.9607 -0.63999 22.0807 1.96001 27.2407L8.04001 22.5207Z" fill="#F6B704"/>
<path d="M18.36 7.92035C20.96 7.88035 23.52 8.88035 25.4 10.6803L30.64 5.40035C27.32 2.28035 22.92 0.600347 18.36 0.640347C11.4 0.640347 5.07996 4.56035 1.95996 10.7603L8.03996 15.4803C9.51996 11.1203 13.56 7.92035 18.36 7.92035Z" fill="#E54335"/>
</svg>
