<svg width="33" height="33" viewBox="0 0 33 33" fill="none" xmlns="http://www.w3.org/2000/svg">
<rect x="0.5" y="0.412109" width="32" height="32" rx="16" fill="#3A86FF"/>
<path d="M13.6999 14.0121C15.2463 14.0121 16.4999 12.7585 16.4999 11.2121C16.4999 9.66571 15.2463 8.41211 13.6999 8.41211C12.1535 8.41211 10.8999 9.66571 10.8999 11.2121C10.8999 12.7585 12.1535 14.0121 13.6999 14.0121Z" stroke="white" stroke-width="1.2" stroke-linecap="round" stroke-linejoin="round"/>
<path d="M8.8999 20.8127C8.8999 18.159 11.3422 16.0127 14.3491 16.0127C14.958 16.0127 15.548 16.1018 16.0999 16.2664" stroke="white" stroke-width="1.2" stroke-linecap="round" stroke-linejoin="round"/>
<path d="M15.0999 20.4524V19.5724C15.0999 19.0524 15.5249 18.6224 16.0499 18.6224C16.9549 18.6224 17.3249 17.9824 16.8699 17.1974C16.6099 16.7474 16.7649 16.1624 17.2199 15.9024L18.0849 15.4074C18.4799 15.1724 18.9899 15.3124 19.2249 15.7074L19.2799 15.8024C19.7299 16.5874 20.4699 16.5874 20.9249 15.8024L20.9799 15.7074C21.2149 15.3124 21.7249 15.1724 22.1199 15.4074L22.9849 15.9024C23.4399 16.1624 23.5949 16.7474 23.3349 17.1974C22.8799 17.9824 23.2499 18.6224 24.1549 18.6224C24.6749 18.6224 25.1049 19.0474 25.1049 19.5724V20.4524C25.1049 20.9724 24.6799 21.4024 24.1549 21.4024C23.2499 21.4024 22.8799 22.0424 23.3349 22.8274C23.5949 23.2824 23.4399 23.8624 22.9849 24.1224L22.1199 24.6174C21.7249 24.8524 21.2149 24.7124 20.9799 24.3174L20.9249 24.2224C20.4749 23.4374 19.7349 23.4374 19.2799 24.2224L19.2249 24.3174C18.9899 24.7124 18.4799 24.8524 18.0849 24.6174L17.2199 24.1224C16.7649 23.8624 16.6099 23.2774 16.8699 22.8274C17.3249 22.0424 16.9549 21.4024 16.0499 21.4024C15.5249 21.4024 15.0999 20.9724 15.0999 20.4524Z" fill="white" fill-opacity="0.22" stroke="white" stroke-width="1.2" stroke-miterlimit="10" stroke-linecap="round" stroke-linejoin="round"/>
<path d="M20.0999 21.5127C20.9283 21.5127 21.5999 20.8411 21.5999 20.0127C21.5999 19.1843 20.9283 18.5127 20.0999 18.5127C19.2714 18.5127 18.5999 19.1843 18.5999 20.0127C18.5999 20.8411 19.2714 21.5127 20.0999 21.5127Z" fill="#3A86FF" stroke="white" stroke-width="1.2" stroke-miterlimit="10" stroke-linecap="round" stroke-linejoin="round"/>
</svg>
