<svg width="33" height="32" viewBox="0 0 33 32" fill="none" xmlns="http://www.w3.org/2000/svg">
<rect x="0.5" width="32" height="32" rx="16" fill="#F3F3F5"/>
<path d="M13.6999 13.6C15.2463 13.6 16.4999 12.3464 16.4999 10.8C16.4999 9.2536 15.2463 8 13.6999 8C12.1535 8 10.8999 9.2536 10.8999 10.8C10.8999 12.3464 12.1535 13.6 13.6999 13.6Z" stroke="#241042" stroke-width="1.2" stroke-linecap="round" stroke-linejoin="round"/>
<path d="M8.8999 20.4006C8.8999 17.7469 11.3422 15.6006 14.3491 15.6006C14.958 15.6006 15.548 15.6897 16.0999 15.8543" stroke="#241042" stroke-width="1.2" stroke-linecap="round" stroke-linejoin="round"/>
<path d="M15.0999 20.0403V19.1603C15.0999 18.6403 15.5249 18.2103 16.0499 18.2103C16.9549 18.2103 17.3249 17.5703 16.8699 16.7853C16.6099 16.3353 16.7649 15.7503 17.2199 15.4903L18.0849 14.9953C18.4799 14.7603 18.9899 14.9003 19.2249 15.2953L19.2799 15.3903C19.7299 16.1753 20.4699 16.1753 20.9249 15.3903L20.9799 15.2953C21.2149 14.9003 21.7249 14.7603 22.1199 14.9953L22.9849 15.4903C23.4399 15.7503 23.5949 16.3353 23.3349 16.7853C22.8799 17.5703 23.2499 18.2103 24.1549 18.2103C24.6749 18.2103 25.1049 18.6353 25.1049 19.1603V20.0403C25.1049 20.5603 24.6799 20.9903 24.1549 20.9903C23.2499 20.9903 22.8799 21.6303 23.3349 22.4153C23.5949 22.8703 23.4399 23.4503 22.9849 23.7103L22.1199 24.2053C21.7249 24.4403 21.2149 24.3003 20.9799 23.9053L20.9249 23.8103C20.4749 23.0253 19.7349 23.0253 19.2799 23.8103L19.2249 23.9053C18.9899 24.3003 18.4799 24.4403 18.0849 24.2053L17.2199 23.7103C16.7649 23.4503 16.6099 22.8653 16.8699 22.4153C17.3249 21.6303 16.9549 20.9903 16.0499 20.9903C15.5249 20.9903 15.0999 20.5603 15.0999 20.0403Z" fill="#C7C5CE" fill-opacity="0.55" stroke="#241042" stroke-width="1.2" stroke-miterlimit="10" stroke-linecap="round" stroke-linejoin="round"/>
<path d="M20.0999 21.1006C20.9283 21.1006 21.5999 20.429 21.5999 19.6006C21.5999 18.7722 20.9283 18.1006 20.0999 18.1006C19.2714 18.1006 18.5999 18.7722 18.5999 19.6006C18.5999 20.429 19.2714 21.1006 20.0999 21.1006Z" fill="white" stroke="#241042" stroke-width="1.2" stroke-miterlimit="10" stroke-linecap="round" stroke-linejoin="round"/>
</svg>
