<svg width="219" height="65" viewBox="0 0 219 65" fill="none" xmlns="http://www.w3.org/2000/svg">
<path fill-rule="evenodd" clip-rule="evenodd" d="M210.81 64.865H8.10943C3.65128 64.865 -0.00012207 61.2174 -0.00012207 56.7554V8.10955C-0.00012207 3.6514 3.64745 0 8.10943 0H210.81C215.268 0 218.92 3.64758 218.92 8.10955V56.7593C218.92 61.2174 215.272 64.865 210.81 64.865Z" fill="#FBFBFB"/>
<path d="M91.3669 49.9298C95.1911 49.9298 98.2912 46.8417 98.2912 43.0323C98.2912 39.2229 95.1911 36.1348 91.3669 36.1348C87.5427 36.1348 84.4426 39.2229 84.4426 43.0323C84.4426 46.8417 87.5427 49.9298 91.3669 49.9298Z" fill="black"/>
<path d="M106.473 49.9298C110.297 49.9298 113.397 46.8417 113.397 43.0323C113.397 39.2229 110.297 36.1348 106.473 36.1348C102.649 36.1348 99.5486 39.2229 99.5486 43.0323C99.5486 46.8417 102.649 49.9298 106.473 49.9298Z" fill="black"/>
<path fill-rule="evenodd" clip-rule="evenodd" d="M210.81 0.00390625H8.10943C3.65128 0.00390625 -0.00012207 3.65148 -0.00012207 8.11346V56.7632C-0.00012207 61.2213 3.64745 64.8727 8.10943 64.8727H210.81C215.268 64.8727 218.92 61.2251 218.92 56.7632V8.10963C218.92 3.65148 215.272 0.00390625 210.81 0.00390625ZM210.81 1.30005C214.565 1.30005 217.62 4.355 217.62 8.10963V56.7593C217.62 60.514 214.565 63.5689 210.81 63.5689H8.10943C4.35479 63.5689 1.29985 60.514 1.29985 56.7593V8.10963C1.29985 4.355 4.35479 1.30005 8.10943 1.30005H210.81Z" fill="#CCCED3"/>
<path fill-rule="evenodd" clip-rule="evenodd" d="M76.8961 16.6129C76.8961 17.974 76.4946 19.0523 75.6879 19.8628C74.7703 20.8225 73.5812 21.3004 72.113 21.3004C70.7098 21.3004 69.513 20.8149 68.5342 19.8399C67.5478 18.8687 67.0583 17.6567 67.0583 16.2191C67.0583 14.7776 67.5478 13.5694 68.5342 12.5983C69.513 11.6271 70.7098 11.1377 72.113 11.1377C72.8088 11.1377 73.4779 11.2753 74.1088 11.543C74.7435 11.8144 75.252 12.1777 75.6305 12.6288L74.7741 13.4853C74.1318 12.7168 73.2447 12.3306 72.1091 12.3306C71.0845 12.3306 70.2012 12.69 69.4518 13.4126C68.7024 14.1353 68.3316 15.0682 68.3316 16.2191C68.3316 17.3699 68.7063 18.3029 69.4518 19.0255C70.1974 19.7481 71.0845 20.1037 72.1091 20.1037C73.195 20.1037 74.1012 19.7405 74.8276 19.0178C75.2979 18.5437 75.5694 17.8899 75.642 17.0488H72.1091V15.8788H76.8235C76.8732 16.1311 76.8961 16.3758 76.8961 16.6129Z" fill="#010202"/>
<path d="M76.8961 16.6129C76.8961 17.974 76.4946 19.0523 75.6879 19.8628C74.7703 20.8225 73.5812 21.3004 72.113 21.3004C70.7098 21.3004 69.513 20.8149 68.5342 19.8399C67.5478 18.8687 67.0583 17.6567 67.0583 16.2191C67.0583 14.7776 67.5478 13.5694 68.5342 12.5983C69.513 11.6271 70.7098 11.1377 72.113 11.1377C72.8088 11.1377 73.4779 11.2753 74.1088 11.543C74.7435 11.8144 75.252 12.1777 75.6305 12.6288L74.7741 13.4853C74.1318 12.7168 73.2447 12.3306 72.1091 12.3306C71.0845 12.3306 70.2012 12.69 69.4518 13.4126C68.7024 14.1353 68.3316 15.0682 68.3316 16.2191C68.3316 17.3699 68.7063 18.3029 69.4518 19.0255C70.1974 19.7481 71.0845 20.1037 72.1091 20.1037C73.195 20.1037 74.1012 19.7405 74.8276 19.0178C75.2979 18.5437 75.5694 17.8899 75.642 17.0488H72.1091V15.8788H76.8235C76.8732 16.1311 76.8961 16.3758 76.8961 16.6129Z" stroke="#010202" stroke-width="0.0764692"/>
<path fill-rule="evenodd" clip-rule="evenodd" d="M84.371 12.5445H79.9396V15.63H83.9313V16.8H79.9396V19.8855H84.371V21.0823H78.6893V11.3516H84.371V12.5445Z" fill="#010202"/>
<path d="M84.371 12.5445H79.9396V15.63H83.9313V16.8H79.9396V19.8855H84.371V21.0823H78.6893V11.3516H84.371V12.5445Z" stroke="#010202" stroke-width="0.0764692"/>
<path fill-rule="evenodd" clip-rule="evenodd" d="M89.6405 21.0823H88.3902V12.5483H85.6718V11.3516H92.359V12.5483H89.6405V21.0823Z" fill="#010202"/>
<path d="M89.6405 21.0823H88.3902V12.5483H85.6718V11.3516H92.359V12.5483H89.6405V21.0823Z" stroke="#010202" stroke-width="0.0764692"/>
<path fill-rule="evenodd" clip-rule="evenodd" d="M97.1952 21.0823H98.4455V11.3516H97.1952V21.0823Z" fill="#010202"/>
<path d="M97.1952 21.0823H98.4455V11.3516H97.1952V21.0823Z" stroke="#010202" stroke-width="0.0764692"/>
<path fill-rule="evenodd" clip-rule="evenodd" d="M103.995 21.0823H102.744V12.5483H100.026V11.3516H106.713V12.5483H103.995V21.0823Z" fill="#010202"/>
<path d="M103.995 21.0823H102.744V12.5483H100.026V11.3516H106.713V12.5483H103.995V21.0823Z" stroke="#010202" stroke-width="0.0764692"/>
<path fill-rule="evenodd" clip-rule="evenodd" d="M113.156 19.0052C113.875 19.7355 114.758 20.0987 115.802 20.0987C116.842 20.0987 117.722 19.7355 118.444 19.0052C119.163 18.275 119.526 17.3459 119.526 16.2141C119.526 15.0824 119.163 14.1494 118.444 13.423C117.725 12.6927 116.842 12.3295 115.802 12.3295C114.758 12.3295 113.879 12.6965 113.16 13.423C112.441 14.1494 112.078 15.0824 112.078 16.2141C112.078 17.3459 112.438 18.275 113.156 19.0052ZM119.37 19.8196C118.41 20.8061 117.225 21.2955 115.802 21.2955C114.38 21.2955 113.191 20.8061 112.235 19.8196C111.279 18.837 110.801 17.6364 110.801 16.2141C110.801 14.7918 111.279 13.5874 112.235 12.6048C113.191 11.6221 114.376 11.1289 115.798 11.1289C117.213 11.1289 118.398 11.6221 119.358 12.6086C120.318 13.595 120.796 14.7956 120.796 16.2103C120.803 17.6364 120.325 18.837 119.37 19.8196Z" fill="#010202"/>
<path d="M113.156 19.0052C113.875 19.7355 114.758 20.0987 115.802 20.0987C116.842 20.0987 117.722 19.7355 118.444 19.0052C119.163 18.275 119.526 17.3459 119.526 16.2141C119.526 15.0824 119.163 14.1494 118.444 13.423C117.725 12.6927 116.842 12.3295 115.802 12.3295C114.758 12.3295 113.879 12.6965 113.16 13.423C112.441 14.1494 112.078 15.0824 112.078 16.2141C112.078 17.3459 112.438 18.275 113.156 19.0052ZM119.37 19.8196C118.41 20.8061 117.225 21.2955 115.802 21.2955C114.38 21.2955 113.191 20.8061 112.235 19.8196C111.279 18.837 110.801 17.6364 110.801 16.2141C110.801 14.7918 111.279 13.5874 112.235 12.6048C113.191 11.6221 114.376 11.1289 115.798 11.1289C117.213 11.1289 118.398 11.6221 119.358 12.6086C120.318 13.595 120.796 14.7956 120.796 16.2103C120.803 17.6364 120.325 18.837 119.37 19.8196Z" stroke="#010202" stroke-width="0.0764692"/>
<path fill-rule="evenodd" clip-rule="evenodd" d="M122.555 21.0823V11.3516H124.077L128.807 18.9182H128.86L128.807 17.0447V11.3516H130.061V21.0823H128.753L123.805 13.1448H123.752L123.805 15.0221V21.0823H122.555Z" fill="#010202"/>
<path d="M122.555 21.0823V11.3516H124.077L128.807 18.9182H128.86L128.807 17.0447V11.3516H130.061V21.0823H128.753L123.805 13.1448H123.752L123.805 15.0221V21.0823H122.555Z" stroke="#010202" stroke-width="0.0764692"/>
<path d="M172.417 29.2471H169.393V49.5191H172.417V29.2471Z" fill="black"/>
<path fill-rule="evenodd" clip-rule="evenodd" d="M196.648 36.5518L193.18 45.3419H193.073L189.475 36.5518H186.213L191.612 48.8327L188.534 55.6691H191.689L200.008 36.5518H196.648Z" fill="black"/>
<path fill-rule="evenodd" clip-rule="evenodd" d="M179.851 36.1074C177.66 36.1074 175.393 37.0709 174.453 39.2121L177.137 40.3324C177.71 39.2121 178.781 38.845 179.901 38.845C181.465 38.845 183.055 39.7856 183.082 41.4526V41.6629C182.531 41.3494 181.362 40.8829 179.928 40.8829C177.03 40.8829 174.085 42.4735 174.085 45.4443C174.085 48.159 176.46 49.9063 179.121 49.9063C181.151 49.9063 182.275 48.9925 182.979 47.9219H183.082V49.4857H186.003V41.7126C186.007 38.1147 183.319 36.1074 179.851 36.1074Z" fill="black"/>
<path fill-rule="evenodd" clip-rule="evenodd" d="M161.074 29.2471H153.824V49.5191H156.849V41.8377H161.074C164.427 41.8377 167.723 39.4098 167.723 35.5405C167.723 31.675 164.427 29.2471 161.074 29.2471Z" fill="black"/>
<path fill-rule="evenodd" clip-rule="evenodd" d="M125.009 37.6794H124.906C124.225 36.8689 122.918 36.1348 121.278 36.1348C117.829 36.1348 114.667 39.1668 114.667 43.059C114.667 46.9246 117.829 49.9298 121.278 49.9298C122.922 49.9298 124.229 49.1995 124.906 48.366H125.009V49.3563C125.009 51.9945 123.598 53.4053 121.327 53.4053C119.473 53.4053 118.322 52.0748 117.852 50.9507L115.213 52.048C115.971 53.8756 117.982 56.1238 121.327 56.1238C124.883 56.1238 127.884 54.0324 127.884 48.9395V36.5553H125.009V37.6794Z" fill="black"/>
<path fill-rule="evenodd" clip-rule="evenodd" d="M129.975 49.5191H133.007V29.2471H129.975V49.5191Z" fill="black"/>
<path fill-rule="evenodd" clip-rule="evenodd" d="M146.878 40.528C146.304 38.9872 144.553 36.1387 140.975 36.1387C137.423 36.1387 134.471 38.9374 134.471 43.0362C134.471 46.9017 137.396 49.9337 141.315 49.9337C144.477 49.9337 146.304 47.999 147.065 46.875L144.714 45.3073C143.926 46.4582 142.86 47.2152 141.315 47.2152C139.774 47.2152 138.677 46.5079 137.973 45.1238L147.195 41.308L146.878 40.528Z" fill="black"/>
<path fill-rule="evenodd" clip-rule="evenodd" d="M73.4067 38.2557V41.1806H80.4112C80.201 42.8285 79.6504 44.0291 78.8169 44.8626C77.796 45.8835 76.2016 47.0038 73.4067 47.0038C69.0938 47.0038 65.7253 43.5282 65.7253 39.2192C65.7253 34.9101 69.0976 31.4346 73.4067 31.4346C75.7313 31.4346 77.429 32.3484 78.683 33.5222L80.7477 31.4576C78.9966 29.7867 76.6719 28.5059 73.4067 28.5059C67.5032 28.5059 62.5404 33.3158 62.5404 39.2192C62.5404 45.1226 67.5032 49.9287 73.4067 49.9287C76.5954 49.9287 78.9966 48.8849 80.8777 46.9235C82.8086 44.9888 83.4127 42.2741 83.4127 40.0795C83.4127 39.4027 83.363 38.7757 83.2559 38.2519L73.4067 38.2557Z" fill="black"/>
<path fill-rule="evenodd" clip-rule="evenodd" d="M36.1717 32.43L16.5305 12.8271C16.305 13.2821 16.1711 13.8404 16.1711 14.5171V50.3506C16.1711 51.035 16.3088 51.6047 16.542 52.0597L36.1717 32.43Z" fill="black"/>
<path fill-rule="evenodd" clip-rule="evenodd" d="M16.5873 12.7094C16.5956 12.6887 16.608 12.6721 16.6204 12.6514C16.608 12.6721 16.5997 12.6928 16.5873 12.7094Z" fill="black"/>
<path fill-rule="evenodd" clip-rule="evenodd" d="M37.3085 31.296L43.3572 25.2473L20.2941 12.1443C19.6403 11.7696 19.0247 11.5938 18.4741 11.5938C18.195 11.5938 17.9388 11.6434 17.7018 11.7314L37.3085 31.296Z" fill="black"/>
<path fill-rule="evenodd" clip-rule="evenodd" d="M51.8852 30.0995L44.8156 26.0811L38.4534 32.4433L44.8156 38.7902L51.8852 34.7718C54.1487 33.4909 54.1487 31.3842 51.8852 30.0995Z" fill="black"/>
<path fill-rule="evenodd" clip-rule="evenodd" d="M37.3246 33.5801L17.76 53.1524C18.4597 53.3894 19.3353 53.2747 20.295 52.7318L43.3734 39.6135L37.3246 33.5801Z" fill="black"/>
<path fill-rule="evenodd" clip-rule="evenodd" d="M16.5673 52.123C16.6593 52.2918 16.7629 52.4452 16.8818 52.5756C16.7629 52.4375 16.6516 52.2918 16.5673 52.123Z" fill="black"/>
<path d="M91.3675 38.8584C89.2799 38.8584 87.4752 40.556 87.4752 43.0374C87.4752 45.4921 89.2761 47.2203 91.3675 47.2203C93.4589 47.2203 95.2598 45.4959 95.2598 43.0374C95.2598 40.556 93.4589 38.8584 91.3675 38.8584Z" fill="white"/>
<path d="M110.366 43.0374C110.366 40.556 108.565 38.8584 106.473 38.8584C104.386 38.8584 102.581 40.556 102.581 43.0374C102.581 45.4921 104.382 47.2203 106.473 47.2203C108.565 47.2203 110.366 45.4921 110.366 43.0374Z" fill="white"/>
<path fill-rule="evenodd" clip-rule="evenodd" d="M121.538 47.2184C119.45 47.2184 117.699 45.4673 117.699 43.0662C117.699 40.6344 119.45 38.8604 121.542 38.8604C123.603 38.8604 125.224 40.6383 125.224 43.0662C125.22 45.4673 123.599 47.2146 121.538 47.2184Z" fill="#FBFBFB"/>
<path fill-rule="evenodd" clip-rule="evenodd" d="M161.152 39.0146H156.847V32.0674H161.152C163.416 32.0674 164.7 33.9409 164.7 35.5391C164.696 37.1105 163.412 39.0146 161.152 39.0146Z" fill="white"/>
<path fill-rule="evenodd" clip-rule="evenodd" d="M137.473 42.8279C137.397 40.163 139.538 38.8057 141.082 38.8057C142.283 38.8057 143.304 39.4098 143.64 40.27L137.473 42.8279Z" fill="white"/>
<path fill-rule="evenodd" clip-rule="evenodd" d="M179.486 47.2167C178.496 47.2167 177.112 46.7196 177.112 45.4961C177.112 43.9323 178.832 43.332 180.32 43.332C181.646 43.332 182.277 43.6188 183.084 44.0088C182.851 45.8861 181.234 47.2167 179.486 47.2167Z" fill="#FBFBFB"/>
</svg>
