<svg width="26" height="25" viewBox="0 0 26 25" fill="none" xmlns="http://www.w3.org/2000/svg">
<circle cx="13" cy="13" r="11" fill="#C7C5CE" fill-opacity="0.55"/>
<path d="M13.6388 4.46663H12.4055C11.7271 4.46663 11.1721 3.91162 11.1721 3.23329V1.99994C11.1721 1.32161 11.7271 0.766602 12.4055 0.766602H13.6388C14.3171 0.766602 14.8721 1.32161 14.8721 1.99994V3.23329C14.8721 3.91162 14.3171 4.46663 13.6388 4.46663Z" stroke="#241042" stroke-width="1.5" stroke-linecap="round" stroke-linejoin="round"/>
<path d="M2.23139 15.5731H3.46473C4.14307 15.5731 4.69807 15.0181 4.69807 14.3398V13.1065C4.69807 12.4281 4.14307 11.873 3.46473 11.873H2.23139C1.55305 11.873 0.998047 12.4281 0.998047 13.1065V14.3398C0.998047 15.0181 1.55305 15.5731 2.23139 15.5731Z" stroke="#241042" stroke-width="1.5" stroke-linecap="round" stroke-linejoin="round"/>
<path d="M23.766 15.5731H22.5327C21.8543 15.5731 21.2993 15.0181 21.2993 14.3398V13.1065C21.2993 12.4281 21.8543 11.873 22.5327 11.873H23.766C24.4443 11.873 24.9993 12.4281 24.9993 13.1065V14.3398C24.9993 15.0181 24.4443 15.5731 23.766 15.5731Z" stroke="#241042" stroke-width="1.5" stroke-linecap="round" stroke-linejoin="round"/>
<path d="M10.6002 1.9668C5.87295 2.53446 2.20032 6.60904 2.20032 11.5667" stroke="#241042" stroke-width="1.5" stroke-linecap="round" stroke-linejoin="round"/>
<path d="M23.8 11.5667C23.8 6.62165 20.1305 2.55969 15.4001 1.9668" stroke="#241042" stroke-width="1.5" stroke-linecap="round" stroke-linejoin="round"/>
<path d="M12.9999 12.66C14.2867 12.66 15.3299 11.6168 15.3299 10.33C15.3299 9.04313 14.2867 8 12.9999 8C11.7131 8 10.6699 9.04313 10.6699 10.33C10.6699 11.6168 11.7131 12.66 12.9999 12.66Z" stroke="#241042" stroke-width="1.5" stroke-linecap="round" stroke-linejoin="round"/>
<path d="M17 18.3195C17 16.5195 15.21 15.0596 13 15.0596C10.79 15.0596 9 16.5195 9 18.3195" stroke="#241042" stroke-width="1.5" stroke-linecap="round" stroke-linejoin="round"/>
</svg>
